<svg xmlns="http://www.w3.org/2000/svg" viewBox="0 0 128 128"><path fill="#01579B" d="M26.2 102.4L8.3 83.7c-2.3-2.3-3.5-5.4-3.5-8.5L5 26.5l21.2 75.9z"/><path fill="#40C4FF" d="M100.3 26l-74.1-.7L5 46.5v28.7l21.2 27.2h27.2l46.9 21.2V26z"/><path fill="#29B6F6" d="M26.2 102.4l53.1-53.1L100.3 26l2.4 73.5-21.2 24.1H54.3z"/><path fill="#01579B" d="M26.2 102.4l27.3-2.4 25.8-50.7L100.3 26z"/><path fill="#fff" opacity=".2" d="M100.3 26L26.2 102.4l-18-18.7c-2.3-2.3-3.5-5.4-3.5-8.5L5 26.5 26.2 5h48.7z"/></svg>
