<svg xmlns="http://www.w3.org/2000/svg" viewBox="0 0 128 128"><linearGradient id="ruby-a" x1="75.9" y1="6.4" x2="37" y2="111.6" gradientUnits="userSpaceOnUse"><stop offset="0" stop-color="#FB7655"/><stop offset="0" stop-color="#FB7655"/><stop offset=".41" stop-color="#E42B1E"/><stop offset=".99" stop-color="#900"/><stop offset="1" stop-color="#900"/></linearGradient><path fill="url(#ruby-a)" d="M25.8 107.8L6.1 53.8l66.2-38.4z"/><linearGradient id="ruby-b" x1="84.5" y1="116.3" x2="64.7" y2="56" gradientUnits="userSpaceOnUse"><stop offset="0" stop-color="#871101"/><stop offset=".99" stop-color="#911209"/><stop offset="1" stop-color="#911209"/></linearGradient><path fill="url(#ruby-b)" d="M25.8 107.8L89.9 100l32-78.9z"/><linearGradient id="ruby-c" x1="110.7" y1="98.7" x2="79.1" y2="36.4" gradientUnits="userSpaceOnUse"><stop offset="0" stop-color="#871101"/><stop offset=".99" stop-color="#911209"/><stop offset="1" stop-color="#911209"/></linearGradient><path fill="url(#ruby-c)" d="M89.9 100l31.9-78.9-44.4-9.3z"/><linearGradient id="ruby-d" x1="35.3" y1="51.6" x2="73.9" y2="15.4" gradientUnits="userSpaceOnUse"><stop offset="0" stop-color="#fff"/><stop offset=".23" stop-color="#E57252"/><stop offset=".46" stop-color="#DE3B20"/><stop offset=".99" stop-color="#A60003"/><stop offset="1" stop-color="#A60003"/></linearGradient><path fill="url(#ruby-d)" d="M72.3 15.4L6.1 53.8l19.7 54h64.1z"/><linearGradient id="ruby-e" x1="110.4" y1="117.2" x2="40.7" y2="37" gradientUnits="userSpaceOnUse"><stop offset="0" stop-color="#fff"/><stop offset=".23" stop-color="#E4714E"/><stop offset=".56" stop-color="#BE1A0D"/><stop offset=".99" stop-color="#A80D00"/><stop offset="1" stop-color="#A80D00"/></linearGradient><path fill="url(#ruby-e)" d="M25.8 107.8L89.9 100l-17.6-84.6z"/><linearGradient id="ruby-f" x1="81" y1="28.1" x2="121.1" y2="22.6" gradientUnits="userSpaceOnUse"><stop offset="0" stop-color="#fff"/><stop offset=".18" stop-color="#E46342"/><stop offset=".4" stop-color="#C82410"/><stop offset=".99" stop-color="#A80D00"/><stop offset="1" stop-color="#A80D00"/></linearGradient><path fill="url(#ruby-f)" d="M89.9 100l31.9-78.9-44.4-9.3z"/><path fill="#9E1209" d="M121.8 21.1L108 4.3 77.4 11.8l44.4 9.3z"/><path fill="#fff" opacity=".2" d="M72.3 15.4l-66.2 38.4L25.8 108z"/></svg>
