<svg xmlns="http://www.w3.org/2000/svg" viewBox="0 0 128 128"><path fill="#DE3423" d="M20 8v26.7c0 2 33.3 6 66.7 6s20-6 20-6V8C90 8 53.3 12 20 12V8z"/><path fill="#B71C1C" d="M20 34.7v26.6c0 2 33.3 6 66.7 6s20-6 20-6V28c-16.7 0-53.4 4-66.7 4s-20-2-20-2v4.7z" opacity=".7"/><path fill="#DE3423" d="M20 61.3V88c0 2 33.3 6 66.7 6s20-6 20-6V54.7c-16.7 0-53.4 4-66.7 4s-20-2-20-2v4.6z"/><path fill="#B71C1C" d="M20 88v26.7c0 2 33.3 6 66.7 6s20-6 20-6V81.3c-16.7 0-53.4 4-66.7 4s-20-2-20-2V88z" opacity=".7"/></svg>
