<svg xmlns="http://www.w3.org/2000/svg" viewBox="0 0 128 128"><path fill="#F05138" d="M126.33 34.06a39.2 39.2 0 0 0-.79-7.83 28.78 28.78 0 0 0-2.65-7.58 28.84 28.84 0 0 0-4.76-6.32 23.42 23.42 0 0 0-6.62-4.55 27.27 27.27 0 0 0-7.68-2.53c-2.65-.51-5.56-.51-8.21-.76H31.2c-1.33.13-2.78.13-4.11.25a29 29 0 0 0-7.55 1.65 23.5 23.5 0 0 0-6.62 3.67 22.5 22.5 0 0 0-5.02 5.52 21.75 21.75 0 0 0-3.4 7.06c-.64 2.27-.89 4.8-1.14 7.19-.13 1.14-.13 2.27-.25 3.4v58.25c.13 1.14.13 2.27.25 3.4.25 2.4.51 4.93 1.14 7.2a21.75 21.75 0 0 0 3.4 7.06 22.5 22.5 0 0 0 5.02 5.52 25.2 25.2 0 0 0 6.62 3.67 29 29 0 0 0 7.55 1.65c1.33.13 2.78.25 4.11.25h65.94c2.65-.25 5.56-.25 8.21-.76a27.27 27.27 0 0 0 7.68-2.53 25.9 25.9 0 0 0 6.62-4.55 22.5 22.5 0 0 0 4.76-6.32 28.78 28.78 0 0 0 2.65-7.58c.51-2.65.64-5.44.79-7.83V34.06z"/><path fill="#fff" d="M85 96.5c-11.11 6.13-26.38 6.76-39.64.5 9.89 6.52 22.77 8.41 34.28 5.27a49.94 49.94 0 0 0 24.46-17.57c.64-1.27 1.27-2.4 1.77-3.67-7.82 12.93-18.95 18.75-28.79 18.24a39.62 39.62 0 0 1-7.95-2.4c-14.58-6.25-26.13-20.2-30.25-35.54a66.83 66.83 0 0 0 24.55 21.34c9.97 5.62 19.83 6.78 25.89 4.4A57.1 57.1 0 0 1 71.2 71.7a60.58 60.58 0 0 1-16.08-20.7 55.06 55.06 0 0 0 22.1 17.39A48.12 48.12 0 0 0 96.63 74c-9.45-10.18-16.67-21.98-20.85-33.91a69.54 69.54 0 0 0 14.07 14.96c5.66 4.62 11.57 8.02 17.23 10.53.45-1.24.85-2.48 1.17-3.75a34.82 34.82 0 0 0 1.2-10.3c-.12 0-.22.1-.35.14-2.53-5.18-5.81-10.04-9.73-14.46a55.65 55.65 0 0 0-17.1-13.63A51.26 51.26 0 0 0 64 18.07a51.33 51.33 0 0 1 24.59 12.77A56.53 56.53 0 0 1 106.79 55c0-1.8-.2-3.6-.42-5.36a38.6 38.6 0 0 0-3.53-11.83 37.38 37.38 0 0 0-5.3-7.47l-.07-.07c.06.18.12.35.17.53a57.1 57.1 0 0 1-7.32 44.65 67.5 67.5 0 0 0 5.78-8.87 63.3 63.3 0 0 0 5.83-17.57A45.7 45.7 0 0 1 85 96.5z"/></svg>
